<svg xmlns="http://www.w3.org/2000/svg" viewBox="0 0 512 512" shape-rendering="crispEdges">

  <!-- Background - office grey-green, very Windows 98 -->
  <rect width="512" height="512" fill="#0A0F06"/>

  <!-- Outer border - Bad Boy Racing red -->
  <rect x="8" y="8" width="496" height="496" fill="none" stroke="#CC0000" stroke-width="8"/>
  <!-- Inner border - Windows 98 teal -->
  <rect x="20" y="20" width="472" height="472" fill="none" stroke="#008080" stroke-width="4"/>

  <!-- Corner accents -->
  <rect x="8" y="8" width="16" height="16" fill="#CC0000"/>
  <rect x="24" y="8" width="8" height="8" fill="#008080"/>
  <rect x="8" y="24" width="8" height="8" fill="#008080"/>
  <rect x="488" y="8" width="16" height="16" fill="#CC0000"/>
  <rect x="480" y="8" width="8" height="8" fill="#008080"/>
  <rect x="488" y="24" width="8" height="8" fill="#008080"/>
  <rect x="8" y="488" width="16" height="16" fill="#CC0000"/>
  <rect x="24" y="496" width="8" height="8" fill="#008080"/>
  <rect x="8" y="480" width="8" height="8" fill="#008080"/>
  <rect x="488" y="488" width="16" height="16" fill="#CC0000"/>
  <rect x="480" y="496" width="8" height="8" fill="#008080"/>
  <rect x="488" y="480" width="8" height="8" fill="#008080"/>

  <!-- ============================================ -->
  <!-- RIDING LAWN MOWER - pixel art                -->
  <!-- big chunky zero-turn / Bad Boy style mower   -->
  <!-- ============================================ -->

  <!-- Mower deck (wide flat cutting platform) -->
  <rect x="108" y="280" width="296" height="20" fill="#CC0000"/>
  <rect x="100" y="284" width="312" height="12" fill="#AA0000"/>
  <!-- Deck underside shadow -->
  <rect x="112" y="300" width="288" height="4" fill="#660000"/>
  <!-- Deck highlight -->
  <rect x="112" y="280" width="80" height="4" fill="#EE2020"/>
  <rect x="300" y="280" width="60" height="4" fill="#EE2020"/>

  <!-- Mower body / chassis -->
  <rect x="152" y="228" width="208" height="56" fill="#CC0000"/>
  <rect x="160" y="220" width="192" height="8" fill="#AA0000"/>
  <!-- Body side panels -->
  <rect x="148" y="232" width="8" height="48" fill="#990000"/>
  <rect x="356" y="232" width="8" height="48" fill="#770000"/>
  <!-- Body highlight -->
  <rect x="160" y="228" width="48" height="4" fill="#EE2020"/>

  <!-- Engine hood / top -->
  <rect x="180" y="196" width="152" height="36" fill="#BB0000"/>
  <rect x="188" y="188" width="136" height="12" fill="#990000"/>
  <!-- Hood vents -->
  <rect x="200" y="200" width="24" height="4" fill="#770000"/>
  <rect x="200" y="208" width="24" height="4" fill="#770000"/>
  <rect x="200" y="216" width="24" height="4" fill="#770000"/>
  <rect x="288" y="200" width="24" height="4" fill="#770000"/>
  <rect x="288" y="208" width="24" height="4" fill="#770000"/>
  <rect x="288" y="216" width="24" height="4" fill="#770000"/>
  <!-- Hood highlight -->
  <rect x="188" y="196" width="36" height="4" fill="#EE2020"/>

  <!-- ROPS / Roll bar frame -->
  <rect x="220" y="156" width="8" height="72" fill="#333333"/>
  <rect x="284" y="156" width="8" height="72" fill="#333333"/>
  <rect x="220" y="156" width="72" height="8" fill="#333333"/>
  <!-- Roll bar highlight -->
  <rect x="222" y="158" width="16" height="4" fill="#555555"/>

  <!-- Seat -->
  <rect x="228" y="228" width="56" height="16" fill="#222222"/>
  <rect x="224" y="224" width="64" height="8" fill="#333333"/>
  <!-- Seat cushion -->
  <rect x="232" y="228" width="48" height="12" fill="#1A1A1A"/>
  <rect x="236" y="228" width="12" height="8" fill="#2A2A2A"/>

  <!-- Steering levers (zero-turn dual joysticks) -->
  <rect x="208" y="240" width="8" height="28" fill="#444444"/>
  <rect x="296" y="240" width="8" height="28" fill="#444444"/>
  <rect x="204" y="236" width="16" height="8" fill="#555555"/>
  <rect x="292" y="236" width="16" height="8" fill="#555555"/>
  <!-- Lever grips -->
  <rect x="206" y="264" width="12" height="8" fill="#CC0000"/>
  <rect x="294" y="264" width="12" height="8" fill="#CC0000"/>

  <!-- BAD BOY logo on side of mower body -->
  <rect x="164" y="244" width="60" height="24" fill="#990000"/>
  <text x="194" y="260" font-family="'Courier New', monospace" font-size="9" font-weight="900" fill="#FFD700" text-anchor="middle">BAD BOY</text>

  <!-- Big rear wheels -->
  <!-- Left rear wheel -->
  <rect x="96" y="288" width="72" height="72" fill="#1A1A1A"/>
  <rect x="100" y="292" width="64" height="64" fill="#222222"/>
  <!-- Tire tread pattern -->
  <rect x="96" y="300" width="8" height="8" fill="#333333"/>
  <rect x="96" y="316" width="8" height="8" fill="#333333"/>
  <rect x="96" y="332" width="8" height="8" fill="#333333"/>
  <rect x="96" y="348" width="8" height="8" fill="#333333"/>
  <rect x="160" y="300" width="8" height="8" fill="#333333"/>
  <rect x="160" y="316" width="8" height="8" fill="#333333"/>
  <rect x="160" y="332" width="8" height="8" fill="#333333"/>
  <rect x="160" y="348" width="8" height="8" fill="#333333"/>
  <rect x="104" y="288" width="8" height="8" fill="#333333"/>
  <rect x="120" y="288" width="8" height="8" fill="#333333"/>
  <rect x="136" y="288" width="8" height="8" fill="#333333"/>
  <rect x="152" y="288" width="8" height="8" fill="#333333"/>
  <rect x="104" y="352" width="8" height="8" fill="#333333"/>
  <rect x="120" y="352" width="8" height="8" fill="#333333"/>
  <rect x="136" y="352" width="8" height="8" fill="#333333"/>
  <rect x="152" y="352" width="8" height="8" fill="#333333"/>
  <!-- Wheel hub left -->
  <rect x="116" y="308" width="36" height="36" fill="#555555"/>
  <rect x="120" y="312" width="28" height="28" fill="#444444"/>
  <rect x="124" y="316" width="20" height="20" fill="#CC0000"/>
  <rect x="128" y="320" width="12" height="12" fill="#990000"/>
  <!-- Wheel shine left -->
  <rect x="104" y="296" width="8" height="16" fill="#444444" opacity="0.5"/>

  <!-- Right rear wheel -->
  <rect x="344" y="288" width="72" height="72" fill="#1A1A1A"/>
  <rect x="348" y="292" width="64" height="64" fill="#222222"/>
  <rect x="344" y="300" width="8" height="8" fill="#333333"/>
  <rect x="344" y="316" width="8" height="8" fill="#333333"/>
  <rect x="344" y="332" width="8" height="8" fill="#333333"/>
  <rect x="344" y="348" width="8" height="8" fill="#333333"/>
  <rect x="408" y="300" width="8" height="8" fill="#333333"/>
  <rect x="408" y="316" width="8" height="8" fill="#333333"/>
  <rect x="408" y="332" width="8" height="8" fill="#333333"/>
  <rect x="408" y="348" width="8" height="8" fill="#333333"/>
  <rect x="352" y="288" width="8" height="8" fill="#333333"/>
  <rect x="368" y="288" width="8" height="8" fill="#333333"/>
  <rect x="384" y="288" width="8" height="8" fill="#333333"/>
  <rect x="400" y="288" width="8" height="8" fill="#333333"/>
  <rect x="352" y="352" width="8" height="8" fill="#333333"/>
  <rect x="368" y="352" width="8" height="8" fill="#333333"/>
  <rect x="384" y="352" width="8" height="8" fill="#333333"/>
  <rect x="400" y="352" width="8" height="8" fill="#333333"/>
  <!-- Wheel hub right -->
  <rect x="364" y="308" width="36" height="36" fill="#555555"/>
  <rect x="368" y="312" width="28" height="28" fill="#444444"/>
  <rect x="372" y="316" width="20" height="20" fill="#CC0000"/>
  <rect x="376" y="320" width="12" height="12" fill="#990000"/>
  <rect x="352" y="296" width="8" height="16" fill="#444444" opacity="0.5"/>

  <!-- Small front caster wheels -->
  <rect x="140" y="304" width="20" height="20" fill="#222222"/>
  <rect x="352" y="304" width="20" height="20" fill="#222222"/>
  <rect x="144" y="308" width="12" height="12" fill="#333333"/>
  <rect x="356" y="308" width="12" height="12" fill="#333333"/>

  <!-- Grass clippings shooting out left -->
  <rect x="60" y="296" width="8" height="4" fill="#3A7A00"/>
  <rect x="52" y="292" width="8" height="4" fill="#2A5A00"/>
  <rect x="44" y="300" width="8" height="4" fill="#3A7A00"/>
  <rect x="68" y="308" width="8" height="4" fill="#4A9A00"/>
  <rect x="48" y="312" width="8" height="4" fill="#2A5A00"/>
  <rect x="56" y="320" width="4" height="4" fill="#3A7A00"/>
  <rect x="40" y="316" width="4" height="4" fill="#4A9A00"/>

  <!-- Exhaust puff right -->
  <rect x="444" y="200" width="12" height="8" fill="#888888" opacity="0.6"/>
  <rect x="452" y="192" width="12" height="8" fill="#AAAAAA" opacity="0.4"/>
  <rect x="444" y="184" width="8" height="8" fill="#CCCCCC" opacity="0.3"/>
  <rect x="456" y="208" width="8" height="4" fill="#888888" opacity="0.5"/>

  <!-- Exhaust pipe -->
  <rect x="436" y="208" width="8" height="20" fill="#555555"/>
  <rect x="432" y="204" width="16" height="8" fill="#444444"/>

  <!-- ============================================ -->
  <!-- CLIPPY - pixel art paperclip assistant       -->
  <!-- classic bent paperclip with eyes             -->
  <!-- speech bubble with tooltip                   -->
  <!-- ============================================ -->

  <!-- Speech bubble -->
  <rect x="284" y="120" width="152" height="60" fill="#FFFFCC"/>
  <rect x="280" y="124" width="160" height="52" fill="#FFFFCC"/>
  <rect x="278" y="128" width="164" height="44" fill="#FFFFCC"/>
  <!-- Bubble border -->
  <rect x="278" y="120" width="164" height="4" fill="#000000"/>
  <rect x="278" y="176" width="164" height="4" fill="#000000"/>
  <rect x="278" y="120" width="4" height="60" fill="#000000"/>
  <rect x="438" y="120" width="4" height="60" fill="#000000"/>
  <!-- Bubble tail pointing down-left to Clippy -->
  <rect x="296" y="180" width="8" height="8" fill="#FFFFCC"/>
  <rect x="292" y="184" width="8" height="8" fill="#FFFFCC"/>
  <rect x="296" y="184" width="4" height="4" fill="#000000"/>
  <rect x="292" y="188" width="4" height="4" fill="#000000"/>
  <rect x="288" y="184" width="4" height="4" fill="#000000"/>
  <!-- Bubble text -->
  <text x="360" y="140" font-family="'Courier New', monospace" font-size="8" font-weight="700" fill="#000000" text-anchor="middle">It looks like you're</text>
  <text x="360" y="152" font-family="'Courier New', monospace" font-size="8" font-weight="700" fill="#000000" text-anchor="middle">racing a lawn mower.</text>
  <text x="360" y="164" font-family="'Courier New', monospace" font-size="8" font-weight="700" fill="#000080" text-anchor="middle">Would you like help?</text>

  <!-- Clippy body - paperclip shape -->
  <!-- Main outer loop top -->
  <rect x="240" y="148" width="40" height="8" fill="#C8C8C8"/>
  <rect x="236" y="152" width="8" height="44" fill="#C8C8C8"/>
  <rect x="276" y="152" width="8" height="44" fill="#C8C8C8"/>
  <!-- Inner loop bottom -->
  <rect x="240" y="196" width="40" height="8" fill="#C8C8C8"/>
  <!-- Middle crosspiece -->
  <rect x="240" y="180" width="40" height="8" fill="#C8C8C8"/>
  <!-- Bottom tail -->
  <rect x="244" y="204" width="32" height="8" fill="#C8C8C8"/>
  <rect x="276" y="208" width="8" height="16" fill="#C8C8C8"/>
  <rect x="252" y="212" width="28" height="8" fill="#C8C8C8"/>
  <!-- Paperclip shine -->
  <rect x="240" y="150" width="8" height="4" fill="#E8E8E8"/>
  <rect x="238" y="154" width="4" height="16" fill="#E8E8E8"/>

  <!-- Clippy EYES -->
  <rect x="248" y="158" width="8" height="8" fill="#FFFFFF"/>
  <rect x="264" y="158" width="8" height="8" fill="#FFFFFF"/>
  <!-- Pupils -->
  <rect x="250" y="160" width="4" height="4" fill="#000000"/>
  <rect x="266" y="160" width="4" height="4" fill="#000000"/>
  <!-- Eye shine -->
  <rect x="252" y="160" width="2" height="2" fill="#FFFFFF"/>
  <rect x="268" y="160" width="2" height="2" fill="#FFFFFF"/>
  <!-- Eyebrows (raised, concerned expression) -->
  <rect x="248" y="154" width="8" height="4" fill="#AAAAAA"/>
  <rect x="264" y="154" width="8" height="4" fill="#AAAAAA"/>

  <!-- Speed lines left - grass green -->
  <rect x="36" y="220" width="56" height="8" fill="#3A7A00"/>
  <rect x="40" y="236" width="48" height="8" fill="#FFFFFF"/>
  <rect x="36" y="252" width="56" height="8" fill="#3A7A00"/>

  <!-- Speed lines right - Bad Boy red -->
  <rect x="420" y="220" width="56" height="8" fill="#CC0000"/>
  <rect x="424" y="236" width="48" height="8" fill="#FFFFFF"/>
  <rect x="420" y="252" width="56" height="8" fill="#CC0000"/>

  <!-- Checkered flag strip -->
  <rect x="64" y="388" width="16" height="16" fill="#FFFFFF"/>
  <rect x="96" y="388" width="16" height="16" fill="#FFFFFF"/>
  <rect x="128" y="388" width="16" height="16" fill="#FFFFFF"/>
  <rect x="160" y="388" width="16" height="16" fill="#FFFFFF"/>
  <rect x="192" y="388" width="16" height="16" fill="#FFFFFF"/>
  <rect x="224" y="388" width="16" height="16" fill="#FFFFFF"/>
  <rect x="256" y="388" width="16" height="16" fill="#FFFFFF"/>
  <rect x="288" y="388" width="16" height="16" fill="#FFFFFF"/>
  <rect x="320" y="388" width="16" height="16" fill="#FFFFFF"/>
  <rect x="352" y="388" width="16" height="16" fill="#FFFFFF"/>
  <rect x="384" y="388" width="16" height="16" fill="#FFFFFF"/>
  <rect x="416" y="388" width="16" height="16" fill="#FFFFFF"/>
  <rect x="80" y="388" width="16" height="16" fill="#111111"/>
  <rect x="112" y="388" width="16" height="16" fill="#111111"/>
  <rect x="144" y="388" width="16" height="16" fill="#111111"/>
  <rect x="176" y="388" width="16" height="16" fill="#111111"/>
  <rect x="208" y="388" width="16" height="16" fill="#111111"/>
  <rect x="240" y="388" width="16" height="16" fill="#111111"/>
  <rect x="272" y="388" width="16" height="16" fill="#111111"/>
  <rect x="304" y="388" width="16" height="16" fill="#111111"/>
  <rect x="336" y="388" width="16" height="16" fill="#111111"/>
  <rect x="368" y="388" width="16" height="16" fill="#111111"/>
  <rect x="400" y="388" width="16" height="16" fill="#111111"/>
  <rect x="432" y="388" width="16" height="16" fill="#111111"/>
  <rect x="80" y="404" width="16" height="16" fill="#FFFFFF"/>
  <rect x="112" y="404" width="16" height="16" fill="#FFFFFF"/>
  <rect x="144" y="404" width="16" height="16" fill="#FFFFFF"/>
  <rect x="176" y="404" width="16" height="16" fill="#FFFFFF"/>
  <rect x="208" y="404" width="16" height="16" fill="#FFFFFF"/>
  <rect x="240" y="404" width="16" height="16" fill="#FFFFFF"/>
  <rect x="272" y="404" width="16" height="16" fill="#FFFFFF"/>
  <rect x="304" y="404" width="16" height="16" fill="#FFFFFF"/>
  <rect x="336" y="404" width="16" height="16" fill="#FFFFFF"/>
  <rect x="368" y="404" width="16" height="16" fill="#FFFFFF"/>
  <rect x="400" y="404" width="16" height="16" fill="#FFFFFF"/>
  <rect x="432" y="404" width="16" height="16" fill="#FFFFFF"/>
  <rect x="64" y="404" width="16" height="16" fill="#111111"/>
  <rect x="96" y="404" width="16" height="16" fill="#111111"/>
  <rect x="128" y="404" width="16" height="16" fill="#111111"/>
  <rect x="160" y="404" width="16" height="16" fill="#111111"/>
  <rect x="192" y="404" width="16" height="16" fill="#111111"/>
  <rect x="224" y="404" width="16" height="16" fill="#111111"/>
  <rect x="256" y="404" width="16" height="16" fill="#111111"/>
  <rect x="288" y="404" width="16" height="16" fill="#111111"/>
  <rect x="320" y="404" width="16" height="16" fill="#111111"/>
  <rect x="352" y="404" width="16" height="16" fill="#111111"/>
  <rect x="384" y="404" width="16" height="16" fill="#111111"/>
  <rect x="416" y="404" width="16" height="16" fill="#111111"/>

  <!-- Text top -->
  <text x="256" y="44" font-family="'Courier New', monospace" font-size="11" font-weight="900" fill="#CC0000" text-anchor="middle" letter-spacing="3">BAD BOY RACING MOWERS</text>
  <text x="256" y="60" font-family="'Courier New', monospace" font-size="9" font-weight="700" fill="#888888" text-anchor="middle" letter-spacing="2">an experiment in motorsport</text>
  <text x="256" y="76" font-family="'Courier New', monospace" font-size="10" font-weight="900" fill="#008080" text-anchor="middle" letter-spacing="2">powered by CLIPPY AI</text>

  <!-- Grass ground line -->
  <rect x="64" y="364" width="384" height="8" fill="#2A5A00"/>
  <rect x="72" y="360" width="368" height="4" fill="#3A7A00"/>
  <!-- Grass tufts -->
  <rect x="80" y="356" width="4" height="8" fill="#4A9A00"/>
  <rect x="88" y="354" width="4" height="10" fill="#3A7A00"/>
  <rect x="96" y="356" width="4" height="8" fill="#4A9A00"/>
  <rect x="160" y="356" width="4" height="8" fill="#3A7A00"/>
  <rect x="168" y="354" width="4" height="10" fill="#4A9A00"/>
  <rect x="240" y="356" width="4" height="8" fill="#3A7A00"/>
  <rect x="320" y="356" width="4" height="8" fill="#4A9A00"/>
  <rect x="328" y="354" width="4" height="10" fill="#3A7A00"/>
  <rect x="400" y="356" width="4" height="8" fill="#4A9A00"/>
  <rect x="408" y="354" width="4" height="10" fill="#3A7A00"/>
  <!-- Freshly cut left stripe (lighter green) -->
  <rect x="64" y="364" width="80" height="8" fill="#4A9A00"/>

  <!-- bottom text -->
  <text x="256" y="432" font-family="'Courier New', monospace" font-size="9" font-weight="700" fill="#444444" text-anchor="middle" letter-spacing="1">zero-turn. zero excuses.</text>
  <text x="256" y="448" font-family="'Courier New', monospace" font-size="9" font-weight="700" fill="#CC0000" text-anchor="middle" letter-spacing="1">infinite unsolicited suggestions.</text>

  <!-- corner decoration -->
  <rect x="40" y="456" width="8" height="8" fill="#CC0000"/>
  <rect x="48" y="456" width="8" height="8" fill="#008080"/>
  <rect x="40" y="464" width="8" height="8" fill="#3A7A00"/>
  <rect x="456" y="456" width="8" height="8" fill="#CC0000"/>
  <rect x="464" y="456" width="8" height="8" fill="#008080"/>
  <rect x="464" y="464" width="8" height="8" fill="#3A7A00"/>

</svg>
