<svg xmlns="http://www.w3.org/2000/svg" viewBox="0 0 512 512" shape-rendering="crispEdges">

  <!-- Background -->
  <rect width="512" height="512" fill="#0d1a0d"/>

  <!-- Outer border - chalk white -->
  <rect x="8" y="8" width="496" height="496" fill="none" stroke="#E8E0D0" stroke-width="8"/>
  <!-- Inner border - forest green -->
  <rect x="20" y="20" width="472" height="472" fill="none" stroke="#2D6A2D" stroke-width="4"/>

  <!-- Corner pixel accents - top left -->
  <rect x="8" y="8" width="16" height="16" fill="#E8E0D0"/>
  <rect x="24" y="8" width="8" height="8" fill="#E8E0D0"/>
  <rect x="8" y="24" width="8" height="8" fill="#E8E0D0"/>

  <!-- Corner pixel accents - top right -->
  <rect x="488" y="8" width="16" height="16" fill="#E8E0D0"/>
  <rect x="480" y="8" width="8" height="8" fill="#E8E0D0"/>
  <rect x="488" y="24" width="8" height="8" fill="#E8E0D0"/>

  <!-- Corner pixel accents - bottom left -->
  <rect x="8" y="488" width="16" height="16" fill="#E8E0D0"/>
  <rect x="24" y="496" width="8" height="8" fill="#E8E0D0"/>
  <rect x="8" y="480" width="8" height="8" fill="#E8E0D0"/>

  <!-- Corner pixel accents - bottom right -->
  <rect x="488" y="488" width="16" height="16" fill="#E8E0D0"/>
  <rect x="480" y="496" width="8" height="8" fill="#E8E0D0"/>
  <rect x="488" y="480" width="8" height="8" fill="#E8E0D0"/>

  <!-- ============================================ -->
  <!-- BOULDER / ROCK pixel art, centered ~256,230  -->
  <!-- Big chunky rocky boulder shape               -->
  <!-- ============================================ -->

  <!-- Shadow base -->
  <rect x="144" y="320" width="224" height="8" fill="#1a1a1a"/>
  <rect x="152" y="328" width="208" height="8" fill="#1a1a1a"/>

  <!-- Boulder base rows (wide bottom) -->
  <rect x="128" y="296" width="256" height="8" fill="#5A5248"/>
  <rect x="120" y="288" width="272" height="8" fill="#6B6058"/>
  <rect x="128" y="280" width="256" height="8" fill="#7A6E64"/>

  <!-- Boulder mid rows -->
  <rect x="112" y="272" width="288" height="8" fill="#6B6058"/>
  <rect x="112" y="264" width="288" height="8" fill="#7A6E64"/>
  <rect x="120" y="256" width="272" height="8" fill="#8A7E74"/>
  <rect x="128" y="248" width="256" height="8" fill="#7A6E64"/>
  <rect x="120" y="240" width="272" height="8" fill="#8A7E74"/>
  <rect x="128" y="232" width="256" height="8" fill="#9A8E84"/>

  <!-- Boulder upper rows (narrows slightly) -->
  <rect x="136" y="224" width="240" height="8" fill="#8A7E74"/>
  <rect x="144" y="216" width="224" height="8" fill="#9A8E84"/>
  <rect x="152" y="208" width="208" height="8" fill="#AAA098"/>
  <rect x="160" y="200" width="192" height="8" fill="#9A8E84"/>
  <rect x="168" y="192" width="176" height="8" fill="#AAA098"/>
  <rect x="176" y="184" width="160" height="8" fill="#BAB0A8"/>
  <rect x="184" y="176" width="144" height="8" fill="#AAA098"/>
  <rect x="200" y="168" width="112" height="8" fill="#BAB0A8"/>
  <rect x="216" y="160" width="80" height="8" fill="#9A8E84"/>
  <rect x="224" y="152" width="64" height="8" fill="#8A7E74"/>
  <rect x="232" y="144" width="48" height="8" fill="#7A6E64"/>

  <!-- Rock highlight (light face top-left of boulder) -->
  <rect x="176" y="184" width="48" height="8" fill="#D0C8BE"/>
  <rect x="168" y="192" width="48" height="8" fill="#C0B8AE"/>
  <rect x="168" y="200" width="40" height="8" fill="#BAB0A8"/>
  <rect x="176" y="208" width="32" height="8" fill="#C0B8AE"/>
  <rect x="184" y="216" width="24" height="8" fill="#BAB0A8"/>

  <!-- Rock cracks / texture lines -->
  <rect x="240" y="200" width="8" height="32" fill="#4A4240"/>
  <rect x="248" y="232" width="8" height="24" fill="#4A4240"/>
  <rect x="296" y="216" width="8" height="40" fill="#4A4240"/>
  <rect x="304" y="256" width="8" height="16" fill="#4A4240"/>
  <rect x="192" y="248" width="40" height="8" fill="#4A4240"/>
  <rect x="320" y="248" width="24" height="8" fill="#4A4240"/>

  <!-- CHALK DUST puffs around the base (white pixel clouds) -->
  <!-- Left puff -->
  <rect x="88" y="296" width="16" height="8" fill="#E8E0D0"/>
  <rect x="80" y="288" width="24" height="8" fill="#E8E0D0"/>
  <rect x="88" y="280" width="16" height="8" fill="#E8E0D0"/>
  <rect x="96" y="272" width="8" height="8" fill="#E8E0D0"/>
  <!-- Left puff scattered dots -->
  <rect x="72" y="296" width="8" height="8" fill="#C8C0B0" opacity="0.7"/>
  <rect x="64" y="288" width="8" height="8" fill="#C8C0B0" opacity="0.5"/>
  <rect x="76" y="276" width="4" height="4" fill="#E8E0D0"/>

  <!-- Right puff -->
  <rect x="408" y="296" width="16" height="8" fill="#E8E0D0"/>
  <rect x="408" y="288" width="24" height="8" fill="#E8E0D0"/>
  <rect x="408" y="280" width="16" height="8" fill="#E8E0D0"/>
  <rect x="408" y="272" width="8" height="8" fill="#E8E0D0"/>
  <!-- Right puff scattered -->
  <rect x="432" y="296" width="8" height="8" fill="#C8C0B0" opacity="0.7"/>
  <rect x="440" y="288" width="8" height="8" fill="#C8C0B0" opacity="0.5"/>
  <rect x="436" y="276" width="4" height="4" fill="#E8E0D0"/>

  <!-- Small chalk bits on ground -->
  <rect x="136" y="312" width="8" height="4" fill="#E8E0D0"/>
  <rect x="160" y="316" width="4" height="4" fill="#E8E0D0"/>
  <rect x="344" y="316" width="4" height="4" fill="#E8E0D0"/>
  <rect x="368" y="312" width="8" height="4" fill="#E8E0D0"/>

  <!-- CHALK BAG pixel art - hanging bottom of boulder area, small -->
  <!-- Bag body -->
  <rect x="240" y="304" width="32" height="24" fill="#2D6A2D"/>
  <rect x="236" y="308" width="40" height="16" fill="#2D6A2D"/>
  <!-- Chalk puff coming out top of bag -->
  <rect x="244" y="296" width="24" height="8" fill="#E8E0D0"/>
  <rect x="248" y="288" width="16" height="8" fill="#E8E0D0"/>
  <rect x="252" y="284" width="8" height="4" fill="#E8E0D0"/>
  <!-- Bag drawstring -->
  <rect x="244" y="304" width="24" height="4" fill="#1A3D1A"/>

  <!-- Speed lines left (thinner, nature-ish green) -->
  <rect x="36" y="220" width="64" height="8" fill="#2D6A2D"/>
  <rect x="40" y="236" width="56" height="8" fill="#E8E0D0"/>
  <rect x="36" y="252" width="64" height="8" fill="#2D6A2D"/>
  <rect x="44" y="268" width="48" height="4" fill="#E8E0D0"/>

  <!-- Speed lines right -->
  <rect x="412" y="220" width="64" height="8" fill="#2D6A2D"/>
  <rect x="416" y="236" width="56" height="8" fill="#E8E0D0"/>
  <rect x="412" y="252" width="64" height="8" fill="#2D6A2D"/>
  <rect x="420" y="268" width="48" height="4" fill="#E8E0D0"/>

  <!-- Checkered flag strip -->
  <!-- Row 1 -->
  <rect x="64" y="348" width="16" height="16" fill="#FFFFFF"/>
  <rect x="96" y="348" width="16" height="16" fill="#FFFFFF"/>
  <rect x="128" y="348" width="16" height="16" fill="#FFFFFF"/>
  <rect x="160" y="348" width="16" height="16" fill="#FFFFFF"/>
  <rect x="192" y="348" width="16" height="16" fill="#FFFFFF"/>
  <rect x="224" y="348" width="16" height="16" fill="#FFFFFF"/>
  <rect x="256" y="348" width="16" height="16" fill="#FFFFFF"/>
  <rect x="288" y="348" width="16" height="16" fill="#FFFFFF"/>
  <rect x="320" y="348" width="16" height="16" fill="#FFFFFF"/>
  <rect x="352" y="348" width="16" height="16" fill="#FFFFFF"/>
  <rect x="384" y="348" width="16" height="16" fill="#FFFFFF"/>
  <rect x="416" y="348" width="16" height="16" fill="#FFFFFF"/>
  <rect x="80" y="348" width="16" height="16" fill="#111111"/>
  <rect x="112" y="348" width="16" height="16" fill="#111111"/>
  <rect x="144" y="348" width="16" height="16" fill="#111111"/>
  <rect x="176" y="348" width="16" height="16" fill="#111111"/>
  <rect x="208" y="348" width="16" height="16" fill="#111111"/>
  <rect x="240" y="348" width="16" height="16" fill="#111111"/>
  <rect x="272" y="348" width="16" height="16" fill="#111111"/>
  <rect x="304" y="348" width="16" height="16" fill="#111111"/>
  <rect x="336" y="348" width="16" height="16" fill="#111111"/>
  <rect x="368" y="348" width="16" height="16" fill="#111111"/>
  <rect x="400" y="348" width="16" height="16" fill="#111111"/>
  <rect x="432" y="348" width="16" height="16" fill="#111111"/>
  <!-- Row 2 offset -->
  <rect x="80" y="364" width="16" height="16" fill="#FFFFFF"/>
  <rect x="112" y="364" width="16" height="16" fill="#FFFFFF"/>
  <rect x="144" y="364" width="16" height="16" fill="#FFFFFF"/>
  <rect x="176" y="364" width="16" height="16" fill="#FFFFFF"/>
  <rect x="208" y="364" width="16" height="16" fill="#FFFFFF"/>
  <rect x="240" y="364" width="16" height="16" fill="#FFFFFF"/>
  <rect x="272" y="364" width="16" height="16" fill="#FFFFFF"/>
  <rect x="304" y="364" width="16" height="16" fill="#FFFFFF"/>
  <rect x="336" y="364" width="16" height="16" fill="#FFFFFF"/>
  <rect x="368" y="364" width="16" height="16" fill="#FFFFFF"/>
  <rect x="400" y="364" width="16" height="16" fill="#FFFFFF"/>
  <rect x="432" y="364" width="16" height="16" fill="#FFFFFF"/>
  <rect x="64" y="364" width="16" height="16" fill="#111111"/>
  <rect x="96" y="364" width="16" height="16" fill="#111111"/>
  <rect x="128" y="364" width="16" height="16" fill="#111111"/>
  <rect x="160" y="364" width="16" height="16" fill="#111111"/>
  <rect x="192" y="364" width="16" height="16" fill="#111111"/>
  <rect x="224" y="364" width="16" height="16" fill="#111111"/>
  <rect x="256" y="364" width="16" height="16" fill="#111111"/>
  <rect x="288" y="364" width="16" height="16" fill="#111111"/>
  <rect x="320" y="364" width="16" height="16" fill="#111111"/>
  <rect x="352" y="364" width="16" height="16" fill="#111111"/>
  <rect x="384" y="364" width="16" height="16" fill="#111111"/>
  <rect x="416" y="364" width="16" height="16" fill="#111111"/>

  <!-- Text: FRICTION LABS top -->
  <text x="256" y="60" font-family="'Courier New', monospace" font-size="19" font-weight="900" fill="#E8E0D0" text-anchor="middle" letter-spacing="4">FRICTION LABS</text>

  <!-- MELLOW SEND -->
  <text x="256" y="84" font-family="'Courier New', monospace" font-size="16" font-weight="900" fill="#2D6A2D" text-anchor="middle" letter-spacing="3">MELLOW SEND</text>

  <!-- OUTDOOR BOULDER -->
  <text x="256" y="420" font-family="'Courier New', monospace" font-size="17" font-weight="900" fill="#E8E0D0" text-anchor="middle" letter-spacing="2">OUTDOOR BOULDER</text>

  <!-- F1 TEAM -->
  <text x="256" y="448" font-family="'Courier New', monospace" font-size="18" font-weight="900" fill="#2D6A2D" text-anchor="middle" letter-spacing="6">F1  TEAM</text>

  <!-- decorative pixel dots bottom corners -->
  <rect x="40" y="398" width="8" height="8" fill="#E8E0D0"/>
  <rect x="48" y="398" width="8" height="8" fill="#E8E0D0"/>
  <rect x="40" y="406" width="8" height="8" fill="#2D6A2D"/>

  <rect x="456" y="398" width="8" height="8" fill="#E8E0D0"/>
  <rect x="464" y="398" width="8" height="8" fill="#E8E0D0"/>
  <rect x="464" y="406" width="8" height="8" fill="#2D6A2D"/>

  <!-- pixel stars / send vibes in sky area -->
  <rect x="48" y="140" width="4" height="4" fill="#E8E0D0"/>
  <rect x="56" y="120" width="4" height="4" fill="#C8C0B0"/>
  <rect x="72" y="148" width="4" height="4" fill="#E8E0D0"/>
  <rect x="440" y="140" width="4" height="4" fill="#E8E0D0"/>
  <rect x="456" y="120" width="4" height="4" fill="#C8C0B0"/>
  <rect x="432" y="152" width="4" height="4" fill="#E8E0D0"/>
  <rect x="248" y="100" width="4" height="4" fill="#E8E0D0"/>
  <rect x="310" y="108" width="4" height="4" fill="#C8C0B0"/>
  <rect x="190" y="112" width="4" height="4" fill="#E8E0D0"/>

</svg>
