<svg xmlns="http://www.w3.org/2000/svg" viewBox="0 0 512 512" shape-rendering="crispEdges">

  <!-- Background - deep plum/midnight -->
  <rect width="512" height="512" fill="#0E0814"/>

  <!-- Outer border - Visa blue -->
  <rect x="8" y="8" width="496" height="496" fill="none" stroke="#1A1F71" stroke-width="8"/>
  <!-- Inner border - Cash App green -->
  <rect x="20" y="20" width="472" height="472" fill="none" stroke="#00D632" stroke-width="4"/>

  <!-- Corner accents - alternating Visa blue and Cash App green -->
  <rect x="8" y="8" width="16" height="16" fill="#1A1F71"/>
  <rect x="24" y="8" width="8" height="8" fill="#00D632"/>
  <rect x="8" y="24" width="8" height="8" fill="#00D632"/>

  <rect x="488" y="8" width="16" height="16" fill="#1A1F71"/>
  <rect x="480" y="8" width="8" height="8" fill="#00D632"/>
  <rect x="488" y="24" width="8" height="8" fill="#00D632"/>

  <rect x="8" y="488" width="16" height="16" fill="#1A1F71"/>
  <rect x="24" y="496" width="8" height="8" fill="#00D632"/>
  <rect x="8" y="480" width="8" height="8" fill="#00D632"/>

  <rect x="488" y="488" width="16" height="16" fill="#1A1F71"/>
  <rect x="480" y="496" width="8" height="8" fill="#00D632"/>
  <rect x="488" y="480" width="8" height="8" fill="#00D632"/>

  <!-- ============================================ -->
  <!-- YOGA PANTS pixel art - front view            -->
  <!-- high-waisted, wide waistband, tapered legs   -->
  <!-- ============================================ -->

  <!-- Waistband - thick, high-waisted -->
  <rect x="152" y="168" width="208" height="32" fill="#1A0A2E"/>
  <rect x="148" y="172" width="216" height="24" fill="#220E3A"/>
  <!-- Waistband elastic detail line -->
  <rect x="152" y="192" width="208" height="4" fill="#2E1450"/>
  <rect x="152" y="168" width="208" height="4" fill="#2E1450"/>
  <!-- Waistband logo patch (Cash App $) -->
  <rect x="244" y="174" width="24" height="20" fill="#00D632"/>
  <rect x="248" y="176" width="16" height="16" fill="#00B82A"/>
  <text x="256" y="188" font-family="'Courier New', monospace" font-size="10" font-weight="900" fill="#FFFFFF" text-anchor="middle">$</text>

  <!-- Left leg -->
  <!-- Upper left thigh -->
  <rect x="152" y="200" width="96" height="16" fill="#2A0D48"/>
  <rect x="148" y="208" width="100" height="16" fill="#2A0D48"/>
  <rect x="148" y="224" width="96" height="16" fill="#320F54"/>
  <rect x="144" y="232" width="96" height="16" fill="#2A0D48"/>
  <rect x="144" y="248" width="92" height="16" fill="#320F54"/>
  <rect x="140" y="256" width="92" height="16" fill="#2A0D48"/>
  <!-- Left mid leg taper -->
  <rect x="140" y="272" width="88" height="16" fill="#320F54"/>
  <rect x="140" y="288" width="84" height="16" fill="#2A0D48"/>
  <rect x="140" y="304" width="80" height="16" fill="#320F54"/>
  <rect x="140" y="320" width="76" height="16" fill="#2A0D48"/>
  <!-- Left lower leg taper -->
  <rect x="144" y="336" width="68" height="16" fill="#320F54"/>
  <rect x="148" y="352" width="60" height="16" fill="#2A0D48"/>
  <!-- Left ankle / cuff -->
  <rect x="152" y="368" width="52" height="12" fill="#1A0A2E"/>
  <rect x="152" y="380" width="52" height="4" fill="#2E1450"/>

  <!-- Right leg -->
  <rect x="264" y="200" width="96" height="16" fill="#2A0D48"/>
  <rect x="264" y="208" width="100" height="16" fill="#2A0D48"/>
  <rect x="268" y="224" width="96" height="16" fill="#320F54"/>
  <rect x="272" y="232" width="96" height="16" fill="#2A0D48"/>
  <rect x="276" y="248" width="92" height="16" fill="#320F54"/>
  <rect x="280" y="256" width="92" height="16" fill="#2A0D48"/>
  <rect x="284" y="272" width="88" height="16" fill="#320F54"/>
  <rect x="288" y="288" width="84" height="16" fill="#2A0D48"/>
  <rect x="292" y="304" width="80" height="16" fill="#320F54"/>
  <rect x="296" y="320" width="76" height="16" fill="#2A0D48"/>
  <rect x="300" y="336" width="68" height="16" fill="#320F54"/>
  <rect x="304" y="352" width="60" height="16" fill="#2A0D48"/>
  <rect x="308" y="368" width="52" height="12" fill="#1A0A2E"/>
  <rect x="308" y="380" width="52" height="4" fill="#2E1450"/>

  <!-- Crotch seam / gusset -->
  <rect x="240" y="200" width="32" height="8" fill="#1A0A2E"/>
  <rect x="244" y="208" width="24" height="16" fill="#1A0A2E"/>
  <rect x="248" y="216" width="16" height="8" fill="#220E3A"/>

  <!-- Seam lines on left leg (pixel stitch detail) -->
  <rect x="188" y="208" width="4" height="160" fill="#3A1260" opacity="0.8"/>
  <!-- Seam line right leg -->
  <rect x="320" y="208" width="4" height="160" fill="#3A1260" opacity="0.8"/>

  <!-- Highlight sheen left leg -->
  <rect x="156" y="216" width="8" height="120" fill="#4A1880" opacity="0.4"/>
  <rect x="160" y="220" width="4" height="112" fill="#5A20A0" opacity="0.25"/>
  <!-- Highlight sheen right leg -->
  <rect x="348" y="216" width="8" height="120" fill="#4A1880" opacity="0.4"/>
  <rect x="344" y="220" width="4" height="112" fill="#5A20A0" opacity="0.25"/>

  <!-- Side stripe left - Visa gold -->
  <rect x="148" y="200" width="8" height="184" fill="#F7B600"/>
  <!-- Side stripe right -->
  <rect x="356" y="200" width="8" height="184" fill="#F7B600"/>
  <!-- Stripe accent -->
  <rect x="148" y="200" width="4" height="184" fill="#FFD040"/>
  <rect x="360" y="200" width="4" height="184" fill="#FFD040"/>

  <!-- ============================================ -->
  <!-- VISA CARD pixel art - left side              -->
  <!-- ============================================ -->
  <rect x="44" y="228" width="80" height="52" fill="#1A1F71"/>
  <rect x="44" y="228" width="80" height="12" fill="#0D1245"/>
  <!-- Card chip -->
  <rect x="52" y="248" width="16" height="12" fill="#C8A000"/>
  <rect x="54" y="250" width="12" height="8" fill="#E8C020"/>
  <rect x="56" y="252" width="8" height="4" fill="#C8A000"/>
  <!-- Card stripe -->
  <rect x="44" y="244" width="80" height="4" fill="#141850"/>
  <!-- VISA text on card -->
  <text x="100" y="272" font-family="'Courier New', monospace" font-size="11" font-weight="900" fill="#F7B600" text-anchor="end">VISA</text>
  <!-- Card number dots -->
  <rect x="52" y="274" width="4" height="4" fill="#8888AA"/>
  <rect x="60" y="274" width="4" height="4" fill="#8888AA"/>
  <rect x="68" y="274" width="4" height="4" fill="#8888AA"/>
  <rect x="76" y="274" width="4" height="4" fill="#8888AA"/>
  <!-- Card shine -->
  <rect x="48" y="232" width="4" height="44" fill="#2A2F91" opacity="0.5"/>

  <!-- ============================================ -->
  <!-- CASH APP LOGO pixel - right side             -->
  <!-- Green square with $ -->
  <!-- ============================================ -->
  <rect x="388" y="228" width="72" height="72" fill="#00D632"/>
  <rect x="392" y="232" width="64" height="64" fill="#00C02C"/>
  <!-- $ symbol large -->
  <!-- Vertical bar -->
  <rect x="420" y="240" width="8" height="48" fill="#FFFFFF"/>
  <!-- Top crossbar -->
  <rect x="408" y="248" width="24" height="8" fill="#FFFFFF"/>
  <!-- Bottom crossbar -->
  <rect x="408" y="264" width="24" height="8" fill="#FFFFFF"/>
  <!-- Gaps for $ shape -->
  <rect x="408" y="248" width="12" height="4" fill="#00C02C"/>
  <rect x="420" y="272" width="12" height="4" fill="#00C02C"/>
  <!-- Shine -->
  <rect x="392" y="232" width="8" height="32" fill="#00E836" opacity="0.4"/>

  <!-- Speed lines left - Visa gold/blue -->
  <rect x="36" y="280" width="4" height="8" fill="#F7B600"/>
  <rect x="36" y="296" width="4" height="8" fill="#1A1F71"/>
  <rect x="36" y="312" width="4" height="8" fill="#F7B600"/>

  <!-- Speed lines right - Cash App green -->
  <rect x="472" y="280" width="4" height="8" fill="#00D632"/>
  <rect x="472" y="296" width="4" height="8" fill="#00D632"/>
  <rect x="472" y="312" width="4" height="8" fill="#00D632"/>

  <!-- Checkered flag strip -->
  <rect x="64" y="404" width="16" height="16" fill="#FFFFFF"/>
  <rect x="96" y="404" width="16" height="16" fill="#FFFFFF"/>
  <rect x="128" y="404" width="16" height="16" fill="#FFFFFF"/>
  <rect x="160" y="404" width="16" height="16" fill="#FFFFFF"/>
  <rect x="192" y="404" width="16" height="16" fill="#FFFFFF"/>
  <rect x="224" y="404" width="16" height="16" fill="#FFFFFF"/>
  <rect x="256" y="404" width="16" height="16" fill="#FFFFFF"/>
  <rect x="288" y="404" width="16" height="16" fill="#FFFFFF"/>
  <rect x="320" y="404" width="16" height="16" fill="#FFFFFF"/>
  <rect x="352" y="404" width="16" height="16" fill="#FFFFFF"/>
  <rect x="384" y="404" width="16" height="16" fill="#FFFFFF"/>
  <rect x="416" y="404" width="16" height="16" fill="#FFFFFF"/>
  <rect x="80" y="404" width="16" height="16" fill="#111111"/>
  <rect x="112" y="404" width="16" height="16" fill="#111111"/>
  <rect x="144" y="404" width="16" height="16" fill="#111111"/>
  <rect x="176" y="404" width="16" height="16" fill="#111111"/>
  <rect x="208" y="404" width="16" height="16" fill="#111111"/>
  <rect x="240" y="404" width="16" height="16" fill="#111111"/>
  <rect x="272" y="404" width="16" height="16" fill="#111111"/>
  <rect x="304" y="404" width="16" height="16" fill="#111111"/>
  <rect x="336" y="404" width="16" height="16" fill="#111111"/>
  <rect x="368" y="404" width="16" height="16" fill="#111111"/>
  <rect x="400" y="404" width="16" height="16" fill="#111111"/>
  <rect x="432" y="404" width="16" height="16" fill="#111111"/>
  <rect x="80" y="420" width="16" height="16" fill="#FFFFFF"/>
  <rect x="112" y="420" width="16" height="16" fill="#FFFFFF"/>
  <rect x="144" y="420" width="16" height="16" fill="#FFFFFF"/>
  <rect x="176" y="420" width="16" height="16" fill="#FFFFFF"/>
  <rect x="208" y="420" width="16" height="16" fill="#FFFFFF"/>
  <rect x="240" y="420" width="16" height="16" fill="#FFFFFF"/>
  <rect x="272" y="420" width="16" height="16" fill="#FFFFFF"/>
  <rect x="304" y="420" width="16" height="16" fill="#FFFFFF"/>
  <rect x="336" y="420" width="16" height="16" fill="#FFFFFF"/>
  <rect x="368" y="420" width="16" height="16" fill="#FFFFFF"/>
  <rect x="400" y="420" width="16" height="16" fill="#FFFFFF"/>
  <rect x="432" y="420" width="16" height="16" fill="#FFFFFF"/>
  <rect x="64" y="420" width="16" height="16" fill="#111111"/>
  <rect x="96" y="420" width="16" height="16" fill="#111111"/>
  <rect x="128" y="420" width="16" height="16" fill="#111111"/>
  <rect x="160" y="420" width="16" height="16" fill="#111111"/>
  <rect x="192" y="420" width="16" height="16" fill="#111111"/>
  <rect x="224" y="420" width="16" height="16" fill="#111111"/>
  <rect x="256" y="420" width="16" height="16" fill="#111111"/>
  <rect x="288" y="420" width="16" height="16" fill="#111111"/>
  <rect x="320" y="420" width="16" height="16" fill="#111111"/>
  <rect x="352" y="420" width="16" height="16" fill="#111111"/>
  <rect x="384" y="420" width="16" height="16" fill="#111111"/>
  <rect x="416" y="420" width="16" height="16" fill="#111111"/>

  <!-- Text top -->
  <text x="256" y="52" font-family="'Courier New', monospace" font-size="14" font-weight="900" fill="#F7B600" text-anchor="middle" letter-spacing="4">SCUDERIA</text>
  <text x="256" y="70" font-family="'Courier New', monospace" font-size="13" font-weight="900" fill="#FFFFFF" text-anchor="middle" letter-spacing="2">VISA CASH APP</text>
  <text x="256" y="88" font-family="'Courier New', monospace" font-size="17" font-weight="900" fill="#00D632" text-anchor="middle" letter-spacing="3">YOGA PANTS</text>

  <!-- bottom text -->
  <text x="256" y="456" font-family="'Courier New', monospace" font-size="10" font-weight="700" fill="#4A1880" text-anchor="middle" letter-spacing="2">high-waisted. high-performance.</text>
  <text x="256" y="474" font-family="'Courier New', monospace" font-size="10" font-weight="700" fill="#F7B600" text-anchor="middle" letter-spacing="2">everywhere you want to be.</text>

  <!-- corner decoration -->
  <rect x="40" y="460" width="8" height="8" fill="#1A1F71"/>
  <rect x="48" y="460" width="8" height="8" fill="#00D632"/>
  <rect x="40" y="468" width="8" height="8" fill="#F7B600"/>

  <rect x="456" y="460" width="8" height="8" fill="#1A1F71"/>
  <rect x="464" y="460" width="8" height="8" fill="#00D632"/>
  <rect x="464" y="468" width="8" height="8" fill="#F7B600"/>

  <!-- floating $ signs ambient -->
  <text x="48" y="180" font-family="'Courier New', monospace" font-size="10" fill="#00D632" opacity="0.4">$</text>
  <text x="452" y="180" font-family="'Courier New', monospace" font-size="10" fill="#00D632" opacity="0.4">$</text>
  <text x="140" y="140" font-family="'Courier New', monospace" font-size="8" fill="#F7B600" opacity="0.3">$</text>
  <text x="364" y="144" font-family="'Courier New', monospace" font-size="8" fill="#F7B600" opacity="0.3">$</text>

</svg>
