<svg xmlns="http://www.w3.org/2000/svg" viewBox="0 0 512 512" shape-rendering="crispEdges">
  <defs>
    <style>
      .pixel { image-rendering: pixelated; }
    </style>
  </defs>

  <!-- Background -->
  <rect width="512" height="512" fill="#0a0a0a"/>

  <!-- Outer border - red -->
  <rect x="8" y="8" width="496" height="496" fill="none" stroke="#CC1100" stroke-width="8"/>
  <!-- Inner border - white -->
  <rect x="20" y="20" width="472" height="472" fill="none" stroke="#EEEEEE" stroke-width="4"/>

  <!-- Corner pixel accents - top left -->
  <rect x="8" y="8" width="16" height="16" fill="#FF2200"/>
  <rect x="24" y="8" width="8" height="8" fill="#FF2200"/>
  <rect x="8" y="24" width="8" height="8" fill="#FF2200"/>

  <!-- Corner pixel accents - top right -->
  <rect x="488" y="8" width="16" height="16" fill="#FF2200"/>
  <rect x="480" y="8" width="8" height="8" fill="#FF2200"/>
  <rect x="488" y="24" width="8" height="8" fill="#FF2200"/>

  <!-- Corner pixel accents - bottom left -->
  <rect x="8" y="488" width="16" height="16" fill="#FF2200"/>
  <rect x="24" y="496" width="8" height="8" fill="#FF2200"/>
  <rect x="8" y="480" width="8" height="8" fill="#FF2200"/>

  <!-- Corner pixel accents - bottom right -->
  <rect x="488" y="488" width="16" height="16" fill="#FF2200"/>
  <rect x="480" y="496" width="8" height="8" fill="#FF2200"/>
  <rect x="488" y="480" width="8" height="8" fill="#FF2200"/>

  <!-- PIZZA slice pixel art, centered ~256,180 -->
  <!-- Pizza body (triangle pointing up) -->
  <!-- Crust arc top -->
  <rect x="152" y="100" width="208" height="16" fill="#D4813A"/>
  <rect x="136" y="116" width="240" height="16" fill="#D4813A"/>
  <rect x="128" y="132" width="256" height="8" fill="#D4813A"/>

  <!-- Cheese layer -->
  <rect x="144" y="140" width="224" height="8" fill="#F5C842"/>
  <rect x="152" y="148" width="208" height="8" fill="#F5C842"/>

  <!-- Sauce + cheese main body building down to point -->
  <!-- Row 1 -->
  <rect x="152" y="156" width="208" height="8" fill="#E85C1A"/>
  <rect x="160" y="164" width="192" height="8" fill="#F5C842"/>
  <rect x="160" y="172" width="192" height="8" fill="#E85C1A"/>
  <rect x="168" y="180" width="176" height="8" fill="#F5C842"/>
  <rect x="168" y="188" width="176" height="8" fill="#E85C1A"/>
  <rect x="176" y="196" width="160" height="8" fill="#F5C842"/>
  <rect x="176" y="204" width="160" height="8" fill="#E85C1A"/>
  <rect x="184" y="212" width="144" height="8" fill="#F5C842"/>
  <rect x="184" y="220" width="144" height="8" fill="#E85C1A"/>
  <rect x="192" y="228" width="128" height="8" fill="#F5C842"/>
  <rect x="192" y="236" width="128" height="8" fill="#E85C1A"/>
  <rect x="200" y="244" width="112" height="8" fill="#F5C842"/>
  <rect x="200" y="252" width="112" height="8" fill="#E85C1A"/>
  <rect x="208" y="260" width="96" height="8" fill="#F5C842"/>
  <rect x="208" y="268" width="96" height="8" fill="#E85C1A"/>
  <rect x="216" y="276" width="80" height="8" fill="#F5C842"/>
  <rect x="216" y="284" width="80" height="8" fill="#E85C1A"/>
  <rect x="224" y="292" width="64" height="8" fill="#F5C842"/>
  <rect x="224" y="300" width="64" height="8" fill="#E85C1A"/>
  <rect x="232" y="308" width="48" height="8" fill="#F5C842"/>
  <rect x="232" y="316" width="48" height="8" fill="#E85C1A"/>
  <rect x="240" y="324" width="32" height="8" fill="#F5C842"/>
  <rect x="240" y="332" width="32" height="8" fill="#E85C1A"/>
  <rect x="248" y="340" width="16" height="8" fill="#F5C842"/>
  <rect x="248" y="348" width="16" height="8" fill="#C41200"/>

  <!-- Pepperoni dots -->
  <rect x="200" y="160" width="16" height="16" fill="#9B1A1A"/>
  <rect x="296" y="164" width="16" height="16" fill="#9B1A1A"/>
  <rect x="232" y="196" width="16" height="16" fill="#9B1A1A"/>
  <rect x="280" y="208" width="16" height="16" fill="#9B1A1A"/>
  <rect x="216" y="240" width="16" height="16" fill="#9B1A1A"/>
  <rect x="264" y="244" width="16" height="16" fill="#9B1A1A"/>
  <rect x="232" y="276" width="16" height="16" fill="#9B1A1A"/>

  <!-- Speed lines (racing) left side -->
  <rect x="40" y="200" width="80" height="8" fill="#FF2200"/>
  <rect x="48" y="216" width="64" height="8" fill="#EEEEEE"/>
  <rect x="40" y="232" width="80" height="8" fill="#FF2200"/>

  <!-- Speed lines right side -->
  <rect x="392" y="200" width="80" height="8" fill="#FF2200"/>
  <rect x="400" y="216" width="64" height="8" fill="#EEEEEE"/>
  <rect x="392" y="232" width="80" height="8" fill="#FF2200"/>

  <!-- Checkered flag strip below pizza -->
  <!-- Row 1 of checkers -->
  <rect x="64" y="368" width="16" height="16" fill="#FFFFFF"/>
  <rect x="96" y="368" width="16" height="16" fill="#FFFFFF"/>
  <rect x="128" y="368" width="16" height="16" fill="#FFFFFF"/>
  <rect x="160" y="368" width="16" height="16" fill="#FFFFFF"/>
  <rect x="192" y="368" width="16" height="16" fill="#FFFFFF"/>
  <rect x="224" y="368" width="16" height="16" fill="#FFFFFF"/>
  <rect x="256" y="368" width="16" height="16" fill="#FFFFFF"/>
  <rect x="288" y="368" width="16" height="16" fill="#FFFFFF"/>
  <rect x="320" y="368" width="16" height="16" fill="#FFFFFF"/>
  <rect x="352" y="368" width="16" height="16" fill="#FFFFFF"/>
  <rect x="384" y="368" width="16" height="16" fill="#FFFFFF"/>
  <rect x="416" y="368" width="16" height="16" fill="#FFFFFF"/>
  <!-- Row 1 blacks fill between -->
  <rect x="80" y="368" width="16" height="16" fill="#111111"/>
  <rect x="112" y="368" width="16" height="16" fill="#111111"/>
  <rect x="144" y="368" width="16" height="16" fill="#111111"/>
  <rect x="176" y="368" width="16" height="16" fill="#111111"/>
  <rect x="208" y="368" width="16" height="16" fill="#111111"/>
  <rect x="240" y="368" width="16" height="16" fill="#111111"/>
  <rect x="272" y="368" width="16" height="16" fill="#111111"/>
  <rect x="304" y="368" width="16" height="16" fill="#111111"/>
  <rect x="336" y="368" width="16" height="16" fill="#111111"/>
  <rect x="368" y="368" width="16" height="16" fill="#111111"/>
  <rect x="400" y="368" width="16" height="16" fill="#111111"/>
  <rect x="432" y="368" width="16" height="16" fill="#111111"/>
  <!-- Row 2 (offset) -->
  <rect x="80" y="384" width="16" height="16" fill="#FFFFFF"/>
  <rect x="112" y="384" width="16" height="16" fill="#FFFFFF"/>
  <rect x="144" y="384" width="16" height="16" fill="#FFFFFF"/>
  <rect x="176" y="384" width="16" height="16" fill="#FFFFFF"/>
  <rect x="208" y="384" width="16" height="16" fill="#FFFFFF"/>
  <rect x="240" y="384" width="16" height="16" fill="#FFFFFF"/>
  <rect x="272" y="384" width="16" height="16" fill="#FFFFFF"/>
  <rect x="304" y="384" width="16" height="16" fill="#FFFFFF"/>
  <rect x="336" y="384" width="16" height="16" fill="#FFFFFF"/>
  <rect x="368" y="384" width="16" height="16" fill="#FFFFFF"/>
  <rect x="400" y="384" width="16" height="16" fill="#FFFFFF"/>
  <rect x="432" y="384" width="16" height="16" fill="#FFFFFF"/>
  <rect x="64" y="384" width="16" height="16" fill="#111111"/>
  <rect x="96" y="384" width="16" height="16" fill="#111111"/>
  <rect x="128" y="384" width="16" height="16" fill="#111111"/>
  <rect x="160" y="384" width="16" height="16" fill="#111111"/>
  <rect x="192" y="384" width="16" height="16" fill="#111111"/>
  <rect x="224" y="384" width="16" height="16" fill="#111111"/>
  <rect x="256" y="384" width="16" height="16" fill="#111111"/>
  <rect x="288" y="384" width="16" height="16" fill="#111111"/>
  <rect x="320" y="384" width="16" height="16" fill="#111111"/>
  <rect x="352" y="384" width="16" height="16" fill="#111111"/>
  <rect x="384" y="384" width="16" height="16" fill="#111111"/>
  <rect x="416" y="384" width="16" height="16" fill="#111111"/>

  <!-- Team name pixel text: SCUDERIA ALBERTO -->
  <!-- Using a blocky pixel font style via rectangles -->
  <!-- "SCUDERIA" top line -->
  <text x="256" y="66" font-family="'Courier New', monospace" font-size="20" font-weight="900" fill="#FF2200" text-anchor="middle" letter-spacing="4" style="image-rendering:pixelated; font-variant: all-caps;">SCUDERIA</text>

  <!-- "ALBERTO" second line -->
  <text x="256" y="90" font-family="'Courier New', monospace" font-size="20" font-weight="900" fill="#EEEEEE" text-anchor="middle" letter-spacing="4">ALBERTO</text>

  <!-- "PRO-PIZZA" below checkers -->
  <text x="256" y="430" font-family="'Courier New', monospace" font-size="22" font-weight="900" fill="#F5C842" text-anchor="middle" letter-spacing="3">PRO-PIZZA</text>

  <!-- "RACING" bottom -->
  <text x="256" y="458" font-family="'Courier New', monospace" font-size="18" font-weight="900" fill="#FF2200" text-anchor="middle" letter-spacing="6">RACING</text>

  <!-- pixel dots decorative bottom corners -->
  <rect x="40" y="420" width="8" height="8" fill="#FF2200"/>
  <rect x="48" y="420" width="8" height="8" fill="#FF2200"/>
  <rect x="40" y="428" width="8" height="8" fill="#FF2200"/>

  <rect x="456" y="420" width="8" height="8" fill="#FF2200"/>
  <rect x="464" y="420" width="8" height="8" fill="#FF2200"/>
  <rect x="464" y="428" width="8" height="8" fill="#FF2200"/>

  <!-- scan line overlay effect (subtle) -->
  <!-- thin horizontal lines every 4px for CRT feel -->
  <rect x="28" y="28" width="456" height="1" fill="#000000" opacity="0.15"/>
  <rect x="28" y="32" width="456" height="1" fill="#000000" opacity="0.15"/>
  <rect x="28" y="36" width="456" height="1" fill="#000000" opacity="0.15"/>

</svg>
